<svg width="329" height="230" viewBox="0 0 329 230" fill="none" xmlns="http://www.w3.org/2000/svg">
<rect x="50" y="54.0469" width="40" height="120" rx="8" fill="url(#paint0_linear_511_7568)" fill-opacity="0.72"/>
<path d="M59.468 206.187C58.8707 206.187 58.3433 206.075 57.886 205.851C57.438 205.618 57.0647 205.305 56.766 204.913L58.054 203.681C58.222 203.924 58.4227 204.11 58.656 204.241C58.8987 204.362 59.1647 204.423 59.454 204.423C59.7433 204.423 59.9953 204.362 60.21 204.241C60.434 204.12 60.602 203.942 60.714 203.709C60.8353 203.476 60.896 203.191 60.896 202.855V196.205H62.814V202.743C62.814 203.434 62.674 204.04 62.394 204.563C62.1233 205.076 61.736 205.478 61.232 205.767C60.7373 206.047 60.1493 206.187 59.468 206.187ZM63.6023 206.047L67.5643 196.205H69.1183L73.0663 206.047H71.0363L67.9843 197.969H68.6843L65.5903 206.047H63.6023ZM65.7023 204.213V202.617H70.9943V204.213H65.7023ZM74.2287 206.047V196.205H75.5587L76.1327 198.109V206.047H74.2287ZM81.0327 206.047L75.1947 198.487L75.5587 196.205L81.3967 203.765L81.0327 206.047ZM81.0327 206.047L80.4867 204.199V196.205H82.4047V206.047H81.0327Z" fill="#AEACB0"/>
<rect x="110" y="54.0469" width="40" height="120" rx="8" fill="url(#paint1_linear_511_7568)" fill-opacity="0.72"/>
<path d="M118.008 206.047V196.205H119.912V206.047H118.008ZM119.408 202.015V200.321H124.364V202.015H119.408ZM119.408 197.885V196.205H124.602V197.885H119.408ZM126.102 206.047V196.205H128.006V206.047H126.102ZM127.502 206.047V204.367H132.948V206.047H127.502ZM127.502 201.833V200.209H132.458V201.833H127.502ZM127.502 197.885V196.205H132.878V197.885H127.502ZM135.924 206.047V204.493H138.486C138.943 204.493 139.298 204.353 139.55 204.073C139.811 203.793 139.942 203.462 139.942 203.079C139.942 202.818 139.886 202.58 139.774 202.365C139.662 202.15 139.494 201.982 139.27 201.861C139.055 201.73 138.794 201.665 138.486 201.665H135.924V200.125H138.276C138.668 200.125 138.98 200.027 139.214 199.831C139.456 199.635 139.578 199.341 139.578 198.949C139.578 198.548 139.456 198.249 139.214 198.053C138.98 197.857 138.668 197.759 138.276 197.759H135.924V196.205H138.5C139.153 196.205 139.699 196.326 140.138 196.569C140.586 196.802 140.922 197.115 141.146 197.507C141.37 197.89 141.482 198.31 141.482 198.767C141.482 199.327 141.309 199.812 140.964 200.223C140.628 200.624 140.133 200.923 139.48 201.119L139.564 200.503C140.292 200.708 140.852 201.049 141.244 201.525C141.645 201.992 141.846 202.556 141.846 203.219C141.846 203.742 141.715 204.218 141.454 204.647C141.202 205.067 140.828 205.408 140.334 205.669C139.848 205.921 139.256 206.047 138.556 206.047H135.924ZM134.524 206.047V196.205H136.414V206.047H134.524Z" fill="#AEACB0"/>
<rect x="170" y="54.0469" width="40" height="120" rx="8" fill="url(#paint2_linear_511_7568)" fill-opacity="0.72"/>
<path d="M175.508 206.047V196.205H176.852L180.842 202.589H180.072L184.048 196.205H185.392V206.047H183.502V199.467L183.866 199.579L181.094 204.031H179.806L177.034 199.579L177.412 199.467V206.047H175.508ZM186.675 206.047L190.637 196.205H192.191L196.139 206.047H194.109L191.057 197.969H191.757L188.663 206.047H186.675ZM188.775 204.213V202.617H194.067V204.213H188.775ZM198.701 201.931V200.447H200.983C201.45 200.447 201.809 200.33 202.061 200.097C202.322 199.854 202.453 199.523 202.453 199.103C202.453 198.72 202.322 198.403 202.061 198.151C201.809 197.89 201.45 197.759 200.983 197.759H198.701V196.205H201.151C201.786 196.205 202.341 196.331 202.817 196.583C203.302 196.826 203.676 197.162 203.937 197.591C204.208 198.02 204.343 198.515 204.343 199.075C204.343 199.654 204.208 200.158 203.937 200.587C203.676 201.007 203.302 201.338 202.817 201.581C202.332 201.814 201.767 201.931 201.123 201.931H198.701ZM197.301 206.047V196.205H199.205V206.047H197.301ZM202.677 206.047L199.429 201.791L201.179 201.245L204.987 206.047H202.677Z" fill="#AEACB0"/>
<rect x="230" y="54.0469" width="40" height="120" rx="8" fill="url(#paint3_linear_511_7568)" fill-opacity="0.72"/>
<path d="M236.28 206.047L240.242 196.205H241.796L245.744 206.047H243.714L240.662 197.969H241.362L238.268 206.047H236.28ZM238.38 204.213V202.617H243.672V204.213H238.38ZM248.306 202.393V200.839H250.588C250.887 200.839 251.158 200.778 251.4 200.657C251.643 200.536 251.834 200.363 251.974 200.139C252.114 199.906 252.184 199.626 252.184 199.299C252.184 198.982 252.114 198.706 251.974 198.473C251.834 198.24 251.643 198.062 251.4 197.941C251.158 197.82 250.887 197.759 250.588 197.759H248.306V196.205H250.784C251.41 196.205 251.97 196.331 252.464 196.583C252.968 196.835 253.365 197.194 253.654 197.661C253.944 198.118 254.088 198.664 254.088 199.299C254.088 199.934 253.944 200.484 253.654 200.951C253.365 201.408 252.968 201.763 252.464 202.015C251.97 202.267 251.41 202.393 250.784 202.393H248.306ZM246.906 206.047V196.205H248.81V206.047H246.906ZM256.838 201.931V200.447H259.12C259.586 200.447 259.946 200.33 260.198 200.097C260.459 199.854 260.59 199.523 260.59 199.103C260.59 198.72 260.459 198.403 260.198 198.151C259.946 197.89 259.586 197.759 259.12 197.759H256.838V196.205H259.288C259.922 196.205 260.478 196.331 260.954 196.583C261.439 196.826 261.812 197.162 262.074 197.591C262.344 198.02 262.48 198.515 262.48 199.075C262.48 199.654 262.344 200.158 262.074 200.587C261.812 201.007 261.439 201.338 260.954 201.581C260.468 201.814 259.904 201.931 259.26 201.931H256.838ZM255.438 206.047V196.205H257.342V206.047H255.438ZM260.814 206.047L257.566 201.791L259.316 201.245L263.124 206.047H260.814Z" fill="#AEACB0"/>
<path d="M38 17V16H36V17H38ZM292 184.548L282 178.774V190.321L292 184.548ZM36 17V172.548H38V17H36ZM49 185.548H283V183.548H49V185.548ZM36 172.548C36 179.728 41.8203 185.548 49 185.548V183.548C42.9249 183.548 38 178.623 38 172.548H36Z" fill="#EDEBEF" fill-opacity="0.32"/>
<defs>
<linearGradient id="paint0_linear_511_7568" x1="70" y1="15.6618" x2="69.985" y2="207.155" gradientUnits="userSpaceOnUse">
<stop stop-color="white"/>
<stop offset="1" stop-color="white" stop-opacity="0"/>
</linearGradient>
<linearGradient id="paint1_linear_511_7568" x1="130" y1="15.6618" x2="129.985" y2="207.155" gradientUnits="userSpaceOnUse">
<stop stop-color="white"/>
<stop offset="1" stop-color="white" stop-opacity="0"/>
</linearGradient>
<linearGradient id="paint2_linear_511_7568" x1="190" y1="15.6618" x2="189.985" y2="207.155" gradientUnits="userSpaceOnUse">
<stop stop-color="white"/>
<stop offset="1" stop-color="white" stop-opacity="0"/>
</linearGradient>
<linearGradient id="paint3_linear_511_7568" x1="250" y1="15.6618" x2="249.985" y2="207.155" gradientUnits="userSpaceOnUse">
<stop stop-color="white"/>
<stop offset="1" stop-color="white" stop-opacity="0"/>
</linearGradient>
</defs>
</svg>
