<svg width="330" height="230" viewBox="0 0 330 230" fill="none" xmlns="http://www.w3.org/2000/svg">
<path d="M165 115C147.15 87.0374 129.299 73.1084 111.449 73.1084C101.98 73.1084 92.8998 77.522 86.2046 85.3782C79.5094 93.2345 75.748 103.89 75.748 115C75.748 126.111 79.5094 136.766 86.2046 144.622C92.8998 152.478 101.98 156.892 111.449 156.892C129.299 156.892 147.15 142.963 165 115ZM165 115C182.851 142.963 200.701 156.892 218.552 156.892C228.02 156.892 237.101 152.478 243.796 144.622C250.491 136.766 254.253 126.111 254.253 115C254.253 103.89 250.491 93.2345 243.796 85.3782C237.101 77.522 228.02 73.1084 218.552 73.1084C200.701 73.1084 182.851 87.0374 165 115Z" stroke="url(#paint0_linear_511_7555)" stroke-opacity="0.72" stroke-width="22.8451" stroke-linecap="round" stroke-linejoin="round"/>
<defs>
<linearGradient id="paint0_linear_511_7555" x1="165" y1="46.308" x2="164.999" y2="180.008" gradientUnits="userSpaceOnUse">
<stop stop-color="white"/>
<stop offset="1" stop-color="white" stop-opacity="0"/>
</linearGradient>
</defs>
</svg>
